<?xml version="1.0" encoding="utf-8"?>
<!-- Generator: Adobe Illustrator 19.2.1, SVG Export Plug-In . SVG Version: 6.00 Build 0)  -->
<svg version="1.1" id="Layer_1" xmlns="http://www.w3.org/2000/svg" xmlns:xlink="http://www.w3.org/1999/xlink" x="0px" y="0px"
	 viewBox="0 0 83 63" style="enable-background:new 0 0 83 63;" xml:space="preserve">
<style type="text/css">
	.st0{fill:none;stroke:#3B5062;stroke-width:2;stroke-linejoin:round;stroke-miterlimit:10;}
	.st1{fill:none;stroke:#3B5062;stroke-width:2;stroke-miterlimit:10;}
	.st2{fill:#3B5062;}
</style>
<g>
	<g>
		<path d="M60,46.3c-5,3-11.2,5.2-18.5,5.2c-22.4,0-31.6-15.6-33.7-19.9c2-3.1,8.6-12.7,20-17.5L24,10.2
			c-13.9,6.6-20.8,19.3-21.2,20c-0.3,0.6-0.4,1.4-0.1,2.1c0.1,0.2,9.9,24.2,38.8,24.2c9,0,16.4-2.8,22.2-6.5L60,46.3z"/>
		<path d="M80.3,30.5c-0.1-0.2-9.9-24.2-38.8-24.2C36.9,6.3,32.8,7,29,8.2l4.1,4.1c2.6-0.6,5.4-1,8.4-1c22.4,0,31.6,15.6,33.7,19.9
			c-1.4,2.2-5,7.5-11,12.2l3.6,3.6c8-6.4,12.1-13.9,12.4-14.5C80.6,31.9,80.6,31.2,80.3,30.5z"/>
	</g>
	<g>
		<path d="M55.7,34.9c0.3-1.1,0.4-2.3,0.4-3.5c0-8.1-6.5-14.6-14.6-14.6c-1.2,0-2.4,0.2-3.5,0.4L55.7,34.9z"/>
		<path d="M42.4,28.7c-0.3,0.1-0.6,0.1-0.9,0.1c-1.4,0-2.6,1.2-2.6,2.6c0,1.9-1.6,3.5-3.5,3.5c-1.9,0-3.5-1.6-3.5-3.5
			c0-3.6,2-6.7,4.9-8.3l-3.6-3.6c-3.8,2.6-6.3,7-6.3,12c0,8.1,6.5,14.6,14.6,14.6c5,0,9.3-2.5,12-6.3L42.4,28.7z"/>
	</g>
</g>
<g>
	<rect x="39" y="-7.3" transform="matrix(0.7071 -0.7071 0.7071 0.7071 -9.942 38.4978)" width="5" height="77.1"/>
</g>
</svg>
